<svg width="2343" height="241" viewBox="0 0 2343 241" fill="none" xmlns="http://www.w3.org/2000/svg">
<path d="M2343 127.78L2295 133.07C2247 138.76 2151 148.75 2055 170.41C1959 191.67 1863 223.62 1767 218.33C1671 212.64 1575 170.71 1479 175.7C1383 180.69 1287 234.6 1191 239.59C1095 244.58 999 202.65 951 180.99L903 159.73V0H951C999 0 1095 0 1191 0C1287 0 1383 0 1479 0C1575 0 1671 0 1767 0C1863 0 1959 0 2055 0C2151 0 2247 0 2295 0H2343V127.78Z" fill="#131217"/>
<path d="M0 131L48 133.3C96 139 192 149 288 170.7C384 192 480 224 576 218.7C672 213 768 171 864 176C960 181 1056 235 1152 240C1248 245 1344 203 1392 181.3L1440 160V0H1392C1344 0 1248 0 1152 0C1056 0 960 0 864 0C768 0 672 0 576 0C480 0 384 0 288 0C192 0 96 0 48 0H0V131Z" fill="#131217"/>
<path d="M2343 127.78L2291 133.07C2243 138.76 2147 148.75 2051 170.41C1955 191.67 1859 223.62 1763 218.33C1667 212.64 1571 170.71 1475 175.7C1379 180.69 1283 234.6 1187 239.59C1091 244.58 995 202.65 947 180.99L899 159.73V0H947C995 0 1091 0 1187 0C1283 0 1379 0 1475 0C1571 0 1667 0 1763 0C1859 0 1955 0 2051 0C2147 0 2243 0 2291 0H2343V127.78Z" fill="#131217"/>
</svg>
